<?xml version="1.0" ?><svg id="recycling" style="enable-background:new 0 0 128 128;" version="1.1" viewBox="0 0 128 128" xml:space="preserve" xmlns="http://www.w3.org/2000/svg" xmlns:xlink="http://www.w3.org/1999/xlink"><style type="text/css">
	.st0{fill:#A7FCD0;}
	.st1{fill:#75B600;}
	.st2{fill:#5C8E0D;}
	.st3{fill:#46600E;}
	.st4{fill:#FFFFFF;}
	.st5{opacity:0.5;fill:#FFFFFF;}
</style><g><circle class="st0" cx="64" cy="64.3" r="64"/><path class="st1" d="M38,103.5c-6.2-4.9-10.3-26.6-10.3-26.6s22.1-0.7,28.3,4.2c6.2,5,7.2,14,2.2,20.2   C53.2,107.4,44.2,108.4,38,103.5z"/><path class="st1" d="M53.6,86.3C47.3,81.3,25,82,25,82s4.2,21.8,10.5,26.8c6.3,5,15.4,4,20.4-2.3C60.9,100.4,59.9,91.3,53.6,86.3z"/><path class="st2" d="M58.1,95.5c-4.9,6.2-14,7.2-20.2,2.2c-3.3-2.7-6.8-9.8-9.2-15.9c1.6,6.7,4.9,18.2,9.2,21.7   c6.2,4.9,15.2,3.9,20.2-2.2c2.8-3.5,3.7-7.8,2.8-11.9C60.5,91.5,59.6,93.6,58.1,95.5z"/><path class="st3" d="M46.9,108c-3.4,0-6.7-1.2-9.4-3.4C31.2,99.5,27.2,78.1,27,77.2c-0.1-0.3,0-0.6,0.2-0.8   c0.2-0.2,0.4-0.4,0.7-0.4c0,0,1.1,0,2.9,0c7.5,0,20.7,0.6,25.5,4.5c6.5,5.3,7.5,15.1,2.4,21.7C55.8,105.9,51.5,108,46.9,108z    M29.2,78c0.9,4.5,4.6,21,9.6,25c2.3,1.9,5.2,2.9,8.2,2.9c4,0,7.7-1.8,10.2-5c4.5-5.8,3.6-14.2-2.1-18.9C52,79.5,43,78,30.9,78   C30.2,78,29.6,78,29.2,78z"/><path class="st3" d="M70,103c-15.4,0-26.1-11.7-26.6-12.3c-0.4-0.4-0.3-1,0.1-1.4c0.4-0.4,1-0.3,1.4,0.1c0.1,0.1,10.5,11.7,25,11.8   c1.6,0,3.2-0.1,4.9-0.4c0.5-0.1,1.1,0.3,1.2,0.8c0.1,0.5-0.3,1.1-0.8,1.2C73.4,103,71.7,103,70,103z"/><path class="st1" d="M41.5,23.9c7.1-3.4,28.5,2.2,28.5,2.2s-8.9,20.2-16,23.6c-7.1,3.4-15.7,0.4-19.1-6.7   C31.4,35.9,34.4,27.4,41.5,23.9z"/><path class="st1" d="M41.2,28.3C34,31.8,31,40.5,34.4,47.7C37.9,55,46.6,58,53.8,54.6c7.2-3.5,16.2-24,16.2-24S48.4,24.8,41.2,28.3   z"/><path class="st2" d="M53.9,44.3c-7.1,3.4-15.7,0.4-19.1-6.7c-0.5-1.1-0.9-2.3-1.1-3.5c-0.6,2.9-0.3,6.1,1.1,9   c3.4,7.1,12,10.1,19.1,6.7c5.5-2.6,12-15.2,14.8-20.8C64.1,35,58,42.4,53.9,44.3z"/><path class="st1" d="M95.8,58c-8-0.2-14.6,6.1-14.8,14c-0.2,7.9,13.9,25,13.9,25s14.9-16.4,15.1-24.3   C110.2,64.7,103.8,58.2,95.8,58z"/><path class="st3" d="M47.5,52c-5.9,0-11.4-3.4-14-8.6c-3.7-7.5-0.4-16.6,7.3-20.2c1.7-0.8,4.1-1.2,7.3-1.2c9.2,0,21.6,3.2,22.1,3.3   c0.3,0.1,0.5,0.3,0.7,0.5c0.1,0.3,0.1,0.6,0,0.8c-0.4,0.8-9.2,20.3-16.7,23.8C52.1,51.5,49.8,52,47.5,52z M48.1,24   c-2.9,0-5.1,0.3-6.5,1c-6.7,3.1-9.5,11-6.3,17.6c2.2,4.5,7,7.5,12.2,7.5c2,0,4-0.4,5.8-1.3c5.9-2.8,13.3-17.6,15.2-21.8   C65.2,26.2,55.5,24,48.1,24z"/><path class="st3" d="M27,59.1c-0.1,0-0.2,0-0.3,0c-0.5-0.1-0.8-0.7-0.7-1.2c5-17.8,23.8-23.2,24.6-23.4c0.5-0.1,1.1,0.2,1.2,0.7   c0.1,0.5-0.2,1.1-0.7,1.2c-0.2,0.1-18.5,5.4-23.2,22C27.9,58.8,27.5,59.1,27,59.1z"/><path class="st1" d="M111.4,66.8c-0.2,7.9-14.9,24.4-14.9,24.4s-14-17.1-13.8-25c0.2-7.9,6.7-14.2,14.7-14   C105.3,52.3,111.5,58.9,111.4,66.8z"/><path class="st2" d="M96.5,86c0,0-11.4-14-13.5-22.5c-0.2,0.9-0.3,1.7-0.3,2.7c-0.2,7.9,13.8,25,13.8,25s14.7-16.5,14.9-24.4   c0-1.1-0.1-2.2-0.3-3.2C109,72,96.5,86,96.5,86z"/><path class="st3" d="M96.9,92C96.9,92,96.9,92,96.9,92c-0.3,0-0.6-0.1-0.8-0.4C95.6,90.9,81.8,74.2,82,66c0.2-8.3,7.1-15,15.5-15   l0.4,0c8.5,0.2,15.3,7.2,15.1,15.7c-0.2,8.2-14.7,24.3-15.3,25C97.5,91.9,97.2,92,96.9,92z M97.5,53c-7.3,0-13.3,5.8-13.5,13   C83.9,72.5,94.1,85.8,97,89.4c3-3.5,13.9-16.4,14-22.8c0.2-7.4-5.7-13.5-13.2-13.6L97.5,53z"/><path class="st3" d="M96.9,71c-0.1,0-0.1,0-0.2,0c-0.5-0.1-0.9-0.6-0.8-1.2c0-0.2,3.6-18.9-9.1-30.7c-0.4-0.4-0.4-1-0.1-1.4   c0.4-0.4,1-0.4,1.4-0.1c13.6,12.5,9.9,31.7,9.7,32.5C97.8,70.7,97.4,71,96.9,71z"/><path class="st4" d="M91,109c-2.2,0-4-1.8-4-4c0-2.2,1.8-4,4-4c2.2,0,4,1.8,4,4C95,107.2,93.2,109,91,109z M91,102.9   c-1.2,0-2.1,1-2.1,2.1c0,1.2,1,2.1,2.1,2.1c1.2,0,2.1-1,2.1-2.1C93.1,103.8,92.2,102.9,91,102.9z"/><path class="st4" d="M54.9,68c-2.2,0-3.9-1.8-3.9-4c0-2.2,1.8-4,3.9-4c2.2,0,3.9,1.8,3.9,4C58.8,66.2,57.1,68,54.9,68z M54.9,61.9   c-1.2,0-2.1,1-2.1,2.1c0,1.2,0.9,2.1,2.1,2.1c1.2,0,2.1-1,2.1-2.1C57,62.8,56.1,61.9,54.9,61.9z"/><path class="st4" d="M13,74c-2.2,0-4-1.8-4-4c0-2.2,1.8-4,4-4c2.2,0,4,1.8,4,4C17,72.2,15.2,74,13,74z M13,67.9   c-1.2,0-2.1,1-2.1,2.1c0,1.2,1,2.1,2.1,2.1c1.2,0,2.1-1,2.1-2.1C15.1,68.8,14.2,67.9,13,67.9z"/><path class="st4" d="M85.1,19.3c0-0.4-0.4-0.8-1-0.9l-1.9-0.3c-0.5-0.1-1.1-0.6-1.1-1.1l-0.3-1.9c-0.1-0.5-0.5-1-0.9-1   s-0.8,0.4-0.9,1L78.9,17c-0.1,0.5-0.6,1.1-1.1,1.1l-1.9,0.3c-0.5,0.1-1,0.5-1,0.9c0,0.4,0.4,0.8,1,0.9l1.9,0.3   c0.5,0.1,1.1,0.6,1.1,1.1l0.3,1.9c0.1,0.5,0.5,1,0.9,1s0.8-0.4,0.8-1l0.3-2.1c0.1-0.5,0.6-1,1.1-1.1l1.8-0.1   C84.7,20,85.1,19.7,85.1,19.3z"/><path class="st4" d="M23.7,42.2c0-0.4-0.4-0.8-1-0.9L20.9,41c-0.5-0.1-1.1-0.6-1.1-1.1L19.4,38c-0.1-0.5-0.5-1-0.9-1   s-0.8,0.4-0.9,1l-0.3,1.9c-0.1,0.5-0.6,1.1-1.1,1.1l-1.9,0.3c-0.5,0.1-1,0.5-1,0.9c0,0.4,0.4,0.8,1,0.9l1.9,0.3   c0.5,0.1,1.1,0.6,1.1,1.1l0.3,1.9c0.1,0.5,0.5,1,0.9,1s0.8-0.4,0.8-1l0.3-2.1c0.1-0.5,0.6-1,1.1-1.1l1.8-0.1   C23.3,42.9,23.7,42.5,23.7,42.2z"/><path class="st4" d="M76.5,84.7c0-0.4-0.4-0.8-1-0.9l-1.9-0.3c-0.5-0.1-1.1-0.6-1.1-1.1l-0.3-1.9c-0.1-0.5-0.5-1-0.9-1   s-0.8,0.4-0.9,1l-0.3,1.9c-0.1,0.5-0.6,1.1-1.1,1.1l-1.9,0.3c-0.5,0.1-1,0.5-1,0.9c0,0.4,0.4,0.8,1,0.9l1.9,0.3   c0.5,0.1,1.1,0.6,1.1,1.1l0.3,1.9c0.1,0.5,0.5,1,0.9,1s0.8-0.4,0.8-1l0.3-2.1c0.1-0.5,0.6-1,1.1-1.1l1.8-0.1   C76.1,85.4,76.5,85.1,76.5,84.7z"/><path class="st4" d="M112.5,39c0-0.4-0.4-0.8-1-0.9l-1.9-0.3c-0.5-0.1-1.1-0.6-1.1-1.1l-0.3-1.9c-0.1-0.5-0.5-1-0.9-1   c-0.4,0-0.8,0.4-0.9,1l-0.3,1.9c-0.1,0.5-0.6,1.1-1.1,1.1l-1.9,0.3c-0.5,0.1-1,0.5-1,0.9c0,0.4,0.4,0.8,1,0.9l1.9,0.3   c0.5,0.1,1.1,0.6,1.1,1.1l0.3,1.9c0.1,0.5,0.5,1,0.9,1c0.4,0,0.8-0.4,0.8-1l0.3-2.1c0.1-0.5,0.6-1,1.1-1.1l1.8-0.1   C112.1,39.8,112.5,39.4,112.5,39z"/><path class="st4" d="M64.6,115.8c0-0.4-0.4-0.8-1-0.9l-1.9-0.3c-0.5-0.1-1.1-0.6-1.1-1.1l-0.3-1.9c-0.1-0.5-0.5-1-0.9-1   c-0.4,0-0.8,0.4-0.9,1l-0.3,1.9c-0.1,0.5-0.6,1.1-1.1,1.1l-1.9,0.3c-0.5,0.1-1,0.5-1,0.9c0,0.4,0.4,0.8,1,0.9l1.9,0.3   c0.5,0.1,1.1,0.6,1.1,1.1l0.3,1.9c0.1,0.5,0.5,1,0.9,1c0.4,0,0.8-0.4,0.8-1l0.3-2.1c0.1-0.5,0.6-1,1.1-1.1l1.8-0.1   C64.2,116.5,64.6,116.2,64.6,115.8z"/><path class="st5" d="M39.2,32.1c-0.2,0-0.4,0-0.5-0.1c-0.5-0.3-0.6-0.9-0.3-1.4c0.1-0.2,3-4.8,13.3-4.8c0,0,0,0,0,0   c3,0,11.9,1.5,12.3,1.6c0.5,0.1,0.9,0.6,0.8,1.2c-0.1,0.5-0.6,0.9-1.2,0.8c-0.1,0-9.1-1.5-11.9-1.5c0,0,0,0,0,0   c-9,0-11.6,3.8-11.6,3.8C39.9,31.9,39.6,32.1,39.2,32.1z"/><path class="st5" d="M56.8,91.6c-0.4,0-0.8-0.2-0.9-0.6c0-0.1-2.2-5.4-7.2-7.3c-5.3-2.1-15.3-2-15.4-2c0,0,0,0,0,0   c-0.6,0-1-0.4-1-1c0-0.6,0.4-1,1-1c0.4,0,10.5,0,16.1,2.2c5.8,2.3,8.2,8.2,8.3,8.5c0.2,0.5-0.1,1.1-0.6,1.3   C57,91.6,56.9,91.6,56.8,91.6z"/><path class="st5" d="M107,65.4c-0.5,0-1-0.4-1-0.9c-0.2-2.8-3.9-5.6-5.3-6.5c-0.5-0.3-0.6-0.9-0.3-1.4c0.3-0.5,0.9-0.6,1.4-0.3   c0.2,0.1,6,3.6,6.2,8.1C108,64.8,107.6,65.3,107,65.4C107,65.4,107,65.4,107,65.4z"/><path class="st5" d="M87,66.1c-0.1,0-0.2,0-0.3,0c-0.5-0.1-0.8-0.7-0.7-1.2c0.1-0.2,1.4-4.9,5.7-7.6c0.5-0.3,1.1-0.1,1.4,0.3   c0.3,0.5,0.1,1.1-0.3,1.4c-3.6,2.2-4.8,6.4-4.8,6.4C87.8,65.8,87.4,66.1,87,66.1z"/></g></svg>